<?xml version="1.0" encoding="utf-8"?>
<!-- Generator: Adobe Illustrator 22.0.1, SVG Export Plug-In . SVG Version: 6.00 Build 0)  -->
<svg version="1.1" id="Ebene_1" xmlns="http://www.w3.org/2000/svg" xmlns:xlink="http://www.w3.org/1999/xlink" x="0px" y="0px"
	 viewBox="0 0 16 16" style="enable-background:new 0 0 16 16;" xml:space="preserve">
<style type="text/css">
	.st0{fill:#FFFFFF;}
</style>
<path class="st0" d="M11,15c2.2,0,4-1.8,4-4s-1.8-4-4-4s-4,1.8-4,4S8.8,15,11,15z M16,11c0,2.8-2.2,5-5,5s-5-2.2-5-5s2.2-5,5-5
	S16,8.2,16,11z"/>
<path class="st0" d="M9.4,11.9c0,0.6,0.5,1.1,1.4,1.1v0.4h0.4v-0.4c0.9-0.1,1.4-0.5,1.4-1.2c0-0.6-0.4-0.9-1.1-1.1l-0.3-0.1V9.5
	c0.4,0,0.6,0.2,0.7,0.5h0.7c0-0.6-0.5-1-1.3-1.1V8.5h-0.4v0.4C10.1,9,9.5,9.5,9.5,10.1c0,0.6,0.4,0.9,1,1.1l0.2,0.1v1.3
	c-0.4-0.1-0.6-0.3-0.7-0.6H9.4L9.4,11.9z M10.8,10.6c-0.4-0.1-0.6-0.3-0.6-0.5c0-0.3,0.2-0.5,0.6-0.6L10.8,10.6
	C10.8,10.6,10.8,10.6,10.8,10.6z M11.2,11.3c0.4,0.1,0.7,0.3,0.7,0.6c0,0.3-0.3,0.6-0.7,0.6L11.2,11.3
	C11.2,11.3,11.2,11.3,11.2,11.3z"/>
<path class="st0" d="M1,0C0.4,0,0,0.4,0,1v8c0,0.6,0.4,1,1,1h4.1c0.1-0.3,0.1-0.7,0.3-1H3c0-1.1-0.9-2-2-2V3c1.1,0,2-0.9,2-2h10
	c0,1.1,0.9,2,2,2v3.5c0.4,0.3,0.7,0.7,1,1.2V1c0-0.6-0.4-1-1-1H1z"/>
<path class="st0" d="M10,5.1L10,5.1C10,3.9,9.1,3,8,3S6,3.9,6,5c0,0.7,0.3,1.3,0.9,1.6C7.7,5.8,8.8,5.3,10,5.1z"/>
</svg>
