<svg id="Ebene_1" data-name="Ebene 1" xmlns="http://www.w3.org/2000/svg" viewBox="0 0 862.11 728.24"><defs><style>.cls-1{fill:#ff9332;}.cls-1,.cls-2,.cls-3,.cls-4,.cls-5{stroke:#000;stroke-miterlimit:10;stroke-width:5px;}.cls-2{fill:#0e6abb;}.cls-3{fill:#ff3025;}.cls-4,.cls-6{fill:#fff;}.cls-5{fill:#007349;}</style></defs><title>ccftplogo1</title><path class="cls-1" d="M604.21,478.61q0,114.52-.08,229.06a31.77,31.77,0,0,1-1.92,11.27c-3.47,8.93-13.47,14.88-25.66,14.93q-58.65.27-117.29,0c-15.68-.1-26.85-9.45-27.79-22.23-.11-1.45-.05-2.92-.05-4.37q0-229.33.05-458.67a34.45,34.45,0,0,1,1.14-9.19c2.79-10,12.76-17.14,25.45-17.22q59.65-.34,119.33,0c15.07.1,26,9.76,26.78,22.43.11,1.82,0,3.64,0,5.47Z" transform="translate(-78.39 -219.5)"/><path class="cls-2" d="M633.25,502.54c0-67.16.32-134.32-.23-201.48-.13-16.22,11.54-30.27,32.25-30q53.9.63,107.81,0c16.84-.22,32.49,9.65,32.43,30.48q-.59,201.15,0,402.31c.05,18.62-12.87,30.8-32.2,30.43q-54.23-1.07-108.48,0c-21.05.4-32-14.52-31.86-30.19C633.6,636.86,633.25,569.7,633.25,502.54Z" transform="translate(-78.39 -219.5)"/><path class="cls-3" d="M230.32,502.56c0-61,.58-122-.24-183-.46-34.42,16-49,33.57-48.54,35.47.94,71,.79,106.44.08,20.31-.4,32.64,20.26,32.52,47.08-.53,123.33-.22,246.66-.24,370,0,29.8-10.81,45.65-31.35,45.72-36.61.11-73.23-.6-109.84.3-17.94.44-31.34-18.29-31.06-45.64C230.76,626.56,230.32,564.56,230.32,502.56Z" transform="translate(-78.39 -219.5)"/><path class="cls-4" d="M938,578.64c-2.06-8.92-3.65-18-6.25-26.74-18.87-63.64-77.65-108.56-144-108.68q-278.22-.48-556.45,0c-77.6.17-142,60.27-149.78,138.1-7.28,72.9,45.33,143.27,119.53,159.33,6,1.31,7.3,3.59,7.42,9.27C211,862.8,309.74,953.17,422.06,944.69c66.48-5,118.49-35.84,155.49-91.52,1.07-1.62,2.16-3.22,2.77-4.12,14.93,5.55,29.09,12.26,44,16.09,82,21.11,166.18-31.89,183.09-114.91,1.19-5.82,3.56-8.16,9.35-9.32,62.17-12.5,110.72-64,119.74-126.56a44.48,44.48,0,0,1,1.52-5.59Z" transform="translate(-78.39 -219.5)"/><path class="cls-5" d="M494.4,787.26c4.69,6,9.35,5.4,12.15-1.5,3.22-7.92,5.17-16.36,8-25.51-14.79,1.45-27.47-.66-40.8-7,2.58,5.08,4.25,9,6.5,12.64C484.73,773.15,489.13,780.56,494.4,787.26Z" transform="translate(-78.39 -219.5)"/><path class="cls-5" d="M931.75,551.9c-18.87-63.64-77.65-108.56-144-108.68q-278.22-.48-556.45,0c-77.6.17-142,60.27-149.78,138.1-7.28,72.9,45.33,143.27,119.53,159.33,6,1.31,7.3,3.59,7.42,9.27C211,862.8,309.74,953.17,422.06,944.69a222.76,222.76,0,0,0,44.22-7.75c.31-1.44.6-2.87.87-4.32,3.68-20.2,8.68-40.3,10.46-60.68,1.53-17.63-.61-35.58-1.2-53.39-.15-4.72-.56-9.43-.86-14.27-8.27.26-15.06-2.95-21.58-6.76-5.57-3.26-11.05-6.67-16.38-10.28a6.11,6.11,0,0,0-6.71-.67c-46.35,20.21-97-12.32-97.55-62.7a8.71,8.71,0,0,0-3.15-7.07,68.83,68.83,0,0,1,6.19-106.74c2.47-1.8,3.5-3.57,3.4-6.79-1-33.76,24-64.22,57.16-69.46,6.75-1.07,13.69-1,20.53-1.4,6.39-28.25,22.77-48.15,51.24-55.1,33.29-8.13,59.09,4.7,78,32.85,1.42-.69,2.8-1.33,4.15-2,34.63-17.68,77.46-3,93.51,32.26,1.81,4,4,5.63,8.26,6.37,40.08,7,65.57,49.07,53.2,87.84-1.13,3.55-.58,5.8,1.65,8.64,25.82,32.91,15.21,83.3-22,102.48-6.38,3.29-9.2,6.87-10.84,13.8-7.89,33.45-39,55.2-73.11,52.24a70.2,70.2,0,0,1-31.14-10.34c-8.26,7.52-16,14.79-24,21.76-5,4.35-7.29,9.52-8.35,16.12-3.24,20.1-4.88,40.05-1.15,60.09a218.1,218.1,0,0,0,40.66-46.22c1.07-1.62,2.16-3.22,2.77-4.12,14.93,5.55,29.09,12.26,44,16.09,82,21.11,166.18-31.89,183.09-114.91,1.19-5.82,3.56-8.16,9.35-9.32,62.17-12.5,110.72-64,119.74-126.56a44.48,44.48,0,0,1,1.52-5.59V578.64C935.94,569.72,934.35,560.66,931.75,551.9Z" transform="translate(-78.39 -219.5)"/><path class="cls-5" d="M450.89,774c8.13,4.9,15.92,10.32,26.86,9.83L464.45,756Z" transform="translate(-78.39 -219.5)"/><path class="cls-5" d="M531.67,804.86c9.47-3.15,17.15-9.13,24.57-15.9a69.66,69.66,0,0,1-17.06-36.51c-7.22,1.4-11.26,4.68-11.9,11.82-.4,4.53-2.27,8.91-2.94,13.43a139.15,139.15,0,0,0-2,19.59C522.26,804,526,806.75,531.67,804.86Z" transform="translate(-78.39 -219.5)"/><path class="cls-6" d="M486.2,301.73c.13-7.89,2.41-14.83,8.74-20a36.73,36.73,0,0,1,12.48-6.59c7.27-2.27,14.66-3.32,22.28-2,7.3,1.27,11.26,6.79,10.32,14.18-.71,5.54-3.69,9.61-7.66,13.22a95.81,95.81,0,0,0-8.8,8.52,18.66,18.66,0,0,0-1.1,22.93c2.45,3.6,5.29,6.94,7.69,10.57,4.81,7.27,4.63,15,1.05,22.59-2,4.25-6,6.12-10.52,6.89-6.12,1-11.73.33-16.09-4.62-3.12-3.55-4.34-7.85-4.67-12.46-.26-3.54-.15-7.16-.92-10.59a110.25,110.25,0,0,0-4.26-13.82c-2.08-5.65-4.61-11.13-6.72-16.76A32.62,32.62,0,0,1,486.2,301.73Z" transform="translate(-78.39 -219.5)"/><path class="cls-6" d="M529.37,256.85c.44-5.45,1.42-9.86,5.35-13,3.36-2.65,7.38-1.76,9.38,2,2.81,5.29,1.71,13.58-2.41,18-3.82,4.1-9,3.23-11-2A34.06,34.06,0,0,1,529.37,256.85Z" transform="translate(-78.39 -219.5)"/><path class="cls-6" d="M525.72,255.33a10.79,10.79,0,0,1-2.59,7.12c-2.44,2.76-5.75,2.46-7.63-.67-2.25-3.72-1.48-9.84,1.62-12.89,2.27-2.24,5.36-2.07,7,.67a31.63,31.63,0,0,1,2.07,5.62Z" transform="translate(-78.39 -219.5)"/><path class="cls-6" d="M501.43,258.91a30.82,30.82,0,0,1,2.25-5.24c1.55-2.35,4.22-2.2,5.87.07a9.53,9.53,0,0,1-.2,10.72c-1.76,2.21-4.43,2.27-5.89-.13A30.93,30.93,0,0,1,501.43,258.91Z" transform="translate(-78.39 -219.5)"/><path class="cls-6" d="M501.06,265.46a3.68,3.68,0,0,1-.34,1.59,7.37,7.37,0,0,1-2.45,2.51c-1.21.55-2.32-.33-3.18-1.32a7.09,7.09,0,0,1-.89-7.82c1.07-2,3.12-2.24,4.84-.67A7.79,7.79,0,0,1,501.06,265.46Z" transform="translate(-78.39 -219.5)"/><path class="cls-6" d="M487.37,271.24a19.87,19.87,0,0,1,2.3-3.89,2.68,2.68,0,0,1,2.56-.08c2.33,1.53,2.09,6.74-.35,8.07a2.56,2.56,0,0,1-2.42-.24A19.89,19.89,0,0,1,487.37,271.24Z" transform="translate(-78.39 -219.5)"/><path class="cls-6" d="M784.41,385.62c-.37,2.08-.63,4.18-1.12,6.23a37.5,37.5,0,0,1-73.14-1.41c-4.35-20.35,9.45-40.78,30-44.42a37.49,37.49,0,0,1,43.51,29.34c.33,1.58.51,3.2.76,4.8Zm-34-9.62h6.76c-.29-4.65-2.6-7.76-6.87-9.6v-7.3h-6.79v7.32c-.43.2-.81.37-1.18.56a10.05,10.05,0,0,0-4.9,12.82c1.73,4.19,5,6.3,9.53,6.5a3.42,3.42,0,0,1,3.36,3.21,3.48,3.48,0,0,1-2.86,3.57,3.44,3.44,0,0,1-3.82-2.5c-.08-.28-.15-.56-.24-.87h-6.67a9.77,9.77,0,0,0,5.36,8.9,2.21,2.21,0,0,1,1.45,2.48c-.1,1.87,0,3.75,0,5.61h6.82c0-2.1,0-4.13,0-6.17a1.52,1.52,0,0,1,1-1.69,10.2,10.2,0,0,0-4.52-19.38,3.4,3.4,0,0,1-3.31-3.26,3.48,3.48,0,0,1,2.82-3.49,3.41,3.41,0,0,1,3.84,2.43C750.24,375.43,750.31,375.72,750.39,376Z" transform="translate(-78.39 -219.5)"/><path class="cls-6" d="M709.84,304c2.4.3,4.82.52,7.2.93,6.63,1.12,13,3.13,18.48,7.1a26.13,26.13,0,0,1,4.43,4c4.88,5.68,4.7,12.56-.37,18.07A29.21,29.21,0,0,1,726.74,342c-15,4.89-29.93,4.66-44.67-1.17A26.94,26.94,0,0,1,672,334.07c-5.27-5.75-5.25-12.69,0-18.45,3.6-3.92,8.16-6.34,13.07-8.15a57.29,57.29,0,0,1,15.85-3.27,6.82,6.82,0,0,0,1-.2Z" transform="translate(-78.39 -219.5)"/><path class="cls-6" d="M668,339.91c8.09,7.16,17.64,10.24,27.86,11.59a81.28,81.28,0,0,0,9.74.65c3.21,0,6.42-.25,9.67-.4-.13.16-.26.37-.42.55a42.9,42.9,0,0,0-8.42,12.58,1.35,1.35,0,0,1-1.51,1c-8.84-.23-17.4-1.67-25.37-5.72a24.28,24.28,0,0,1-9-7.3A12.81,12.81,0,0,1,668,345C668,343.36,668,341.74,668,339.91Z" transform="translate(-78.39 -219.5)"/><path class="cls-6" d="M709.59,406.75c-1.82,0-3.33,0-4.83,0-8.4-.2-16.56-1.56-24.21-5.21a25.2,25.2,0,0,1-10-7.81,12.74,12.74,0,0,1-2.54-7.85c0-1.61,0-3.23,0-4.88,1.93,1.39,3.72,2.84,5.65,4.05a51.45,51.45,0,0,0,19.42,6.9c3.2.52,6.46.68,9.69,1.05.41.05,1,.32,1.12.61A47.19,47.19,0,0,0,709.59,406.75Z" transform="translate(-78.39 -219.5)"/><path class="cls-6" d="M703.46,372.61l-1.13,13.48c-.86-.07-2.05-.12-3.24-.24a53.91,53.91,0,0,1-19.77-5.46,25,25,0,0,1-8.39-6.64,13,13,0,0,1-2.93-8.51c0-1.55,0-3.1,0-4.83C678.32,369.33,690.66,371.9,703.46,372.61Z" transform="translate(-78.39 -219.5)"/><path class="cls-6" d="M310.55,371.2h-1.38c-8.61,0-17.21,0-25.82,0a3.11,3.11,0,0,1-2-.67c-.8-.75-.43-1.63.15-2.46,3.62-5.16,7.21-10.35,10.82-15.52Q306.68,332,321,311.43l.44-.62a1.72,1.72,0,0,1,2.08-.8,1.74,1.74,0,0,1,1.2,2c-.24,3.05-.49,6.1-.73,9.16q-.84,10.35-1.67,20.71c-.29,3.71-.59,7.42-.88,11.12,0,.18,0,.37,0,.71h27.11c.91,0,1.76.05,2.24,1s0,1.6-.47,2.31l-39.53,56.7c-.08.12-.17.23-.26.35a1.7,1.7,0,0,1-2.15.82,1.76,1.76,0,0,1-1.15-2l1-11.88q.82-10.36,1.66-20.72c.18-2.32.37-4.65.56-7C310.47,372.62,310.5,372,310.55,371.2Z" transform="translate(-78.39 -219.5)"/></svg>